<?xml version="1.0" standalone="no"?>
<!DOCTYPE svg PUBLIC "-//W3C//DTD SVG 20010904//EN"
 "http://www.w3.org/TR/2001/REC-SVG-20010904/DTD/svg10.dtd">
<svg version="1.0" xmlns="http://www.w3.org/2000/svg"
 width="500.000000pt" height="500.000000pt" viewBox="0 0 500.000000 500.000000"
 preserveAspectRatio="xMidYMid meet">

<g transform="translate(0.000000,500.000000) scale(0.100000,-0.100000)"
fill="#000000" stroke="none">
<path d="M2382 4679 c-124 -21 -281 -106 -382 -207 -106 -107 -197 -268 -224
-396 l-14 -66 73 0 c138 0 314 -71 468 -190 l27 -22 0 21 c0 39 -31 98 -57
110 -15 7 -43 9 -67 6 -46 -7 -71 9 -64 42 3 15 14 18 72 18 61 0 70 3 91 27
41 48 45 167 7 200 -23 20 -59 28 -93 21 -33 -6 -38 -19 -11 -26 13 -4 11 -5
-5 -6 -13 0 -23 -3 -23 -6 0 -10 33 -60 49 -72 9 -8 10 -13 3 -13 -7 0 -12 -8
-12 -17 0 -15 -2 -16 -10 -3 -6 9 -10 10 -10 3 0 -41 -89 -58 -130 -25 -17 14
-22 28 -22 62 2 103 109 162 264 146 76 -8 135 -40 164 -90 23 -40 23 -113 -1
-149 -18 -28 -75 -63 -125 -77 l-25 -7 30 -8 c129 -34 177 -155 110 -273 l-24
-42 29 -58 c16 -32 32 -71 36 -87 7 -28 7 -28 24 -8 19 24 47 15 37 -10 -12
-31 23 -5 39 29 9 19 20 34 25 34 10 0 1 -26 -19 -57 -8 -14 -10 -23 -4 -23
13 0 49 45 57 71 4 10 11 19 16 19 5 0 3 -13 -6 -30 -19 -37 -19 -46 0 -30 8
7 15 9 15 4 0 -5 12 9 26 29 14 21 24 39 22 40 -1 1 -20 11 -41 21 -57 29 -91
74 -116 154 -21 63 -23 86 -19 185 4 98 9 120 35 177 44 97 125 160 206 160 9
0 17 5 17 10 0 6 -9 10 -20 10 -11 0 -20 6 -20 14 0 8 -8 17 -17 19 -17 4 -17
5 0 6 9 0 17 6 17 13 0 6 6 3 14 -8 11 -14 11 -21 3 -26 -8 -5 -6 -8 6 -8 9 0
17 7 17 17 0 9 3 13 7 10 3 -4 6 -20 5 -37 -1 -25 3 -30 22 -30 30 0 108 -51
135 -88 13 -19 32 -32 49 -34 21 -2 27 -8 27 -28 0 -19 -5 -24 -19 -22 -15 3
-17 -1 -12 -15 16 -39 27 -140 21 -185 -3 -31 -2 -48 5 -48 5 0 10 8 10 18 0
12 3 14 8 4 7 -10 22 -9 76 5 l68 18 -6 80 c-21 269 -129 465 -338 613 -77 54
-165 96 -236 111 -61 13 -183 13 -260 0z m126 -176 c-4 -22 -32 -38 -52 -30
-21 8 -21 43 1 56 22 12 55 -5 51 -26z m152 -9 c0 -17 -22 -14 -28 4 -2 7 3
12 12 12 9 0 16 -7 16 -16z m-60 -59 c0 -13 -6 -25 -12 -28 -22 -7 -38 4 -38
28 0 13 6 25 13 28 21 7 37 -4 37 -28z m217 -6 c16 0 16 -1 -1 -8 -11 -4 -23
-16 -27 -27 -7 -17 -8 -17 -8 4 -1 14 -7 22 -18 22 -17 1 -17 1 0 11 9 5 17
18 18 27 0 12 3 11 9 -5 5 -13 17 -23 27 -24z m-519 0 c14 0 14 -2 2 -6 -8 -4
-20 -13 -27 -22 -11 -15 -12 -14 -13 1 0 9 -8 19 -17 21 -14 4 -12 5 5 6 13 1
22 8 23 19 1 16 2 16 6 0 2 -10 12 -18 21 -19z m425 -19 c9 0 9 -2 1 -8 -7 -4
-14 -16 -17 -27 -4 -18 -5 -18 -6 3 -1 13 -8 22 -18 23 -17 1 -17 2 0 6 9 2
18 12 18 21 1 15 2 15 6 0 2 -10 10 -18 16 -18z m-605 -21 c4 -20 -25 -52 -42
-46 -16 5 -20 36 -5 53 15 18 43 14 47 -7z m375 -24 l22 -8 -24 -4 c-13 -3
-26 -14 -29 -26 -6 -21 -6 -21 -12 3 -3 14 -16 27 -30 31 l-25 7 26 1 c18 1
29 8 34 24 l8 22 4 -21 c2 -12 14 -25 26 -29z m-175 -16 c15 -1 15 -2 0 -6
-10 -2 -18 -12 -18 -21 0 -14 -1 -14 -12 0 -7 9 -20 18 -28 21 -10 4 -7 6 8 6
15 1 22 8 23 24 l2 22 4 -22 c2 -13 12 -24 21 -24z m270 -10 c15 -1 15 -2 0
-6 -10 -2 -19 -12 -19 -21 -1 -15 -2 -15 -6 1 -2 9 -14 18 -26 18 -22 2 -22 2
1 6 12 2 23 12 23 21 1 15 2 15 6 0 2 -10 12 -19 21 -19z m272 4 c0 -20 -24
-11 -28 10 -2 12 1 15 12 11 9 -3 16 -13 16 -21z m-702 -30 c5 -17 -26 -29
-40 -15 -6 6 -7 15 -3 22 9 14 37 9 43 -7z m-123 -33 c18 0 23 -4 19 -15 -4
-11 1 -15 17 -16 24 -2 24 -2 2 -6 -15 -3 -23 -12 -24 -26 -2 -22 -2 -22 -6 1
-2 12 -12 23 -21 23 -15 1 -15 2 1 6 23 6 22 23 -3 23 -12 0 -20 -7 -21 -17
-1 -17 -2 -17 -6 0 -2 9 -9 17 -14 17 -6 0 -3 7 5 16 9 8 17 21 17 27 1 7 4 2
6 -10 3 -16 11 -23 28 -23z m683 6 c3 -13 -1 -17 -14 -14 -11 2 -20 11 -22 22
-3 13 1 17 14 14 11 -2 20 -11 22 -22z m-220 -17 c14 0 14 -2 2 -6 -8 -3 -18
-11 -22 -17 -5 -8 -8 -7 -8 2 0 6 -8 13 -17 13 -17 1 -17 2 0 6 9 2 18 12 18
21 1 15 2 15 6 0 2 -10 12 -18 21 -19z m442 -5 c0 -16 -26 -19 -35 -4 -3 6 -4
14 0 20 8 13 35 1 35 -16z m-362 -61 c14 -12 14 -13 -1 -13 -9 0 -17 -5 -17
-12 0 -7 -5 -6 -12 4 -7 9 -20 18 -28 21 -10 4 -7 6 8 6 14 1 22 8 23 19 0 13
2 14 6 2 3 -8 12 -21 21 -27z m-608 -73 c0 -21 -34 -45 -50 -35 -11 7 -13 38
-3 48 3 4 17 7 30 7 16 0 23 -6 23 -20z m14 -55 c4 -10 -1 -15 -15 -15 -17 0
-18 2 -7 15 16 18 15 18 22 0z m1142 -86 c10 -17 -13 -36 -27 -22 -12 12 -4
33 11 33 5 0 12 -5 16 -11z m-573 -290 l22 0 -22 -11 c-13 -6 -24 -18 -24 -27
-1 -13 -2 -13 -6 2 -2 9 -12 17 -21 18 -11 0 -12 2 -4 6 6 2 12 14 12 26 1 20
2 20 11 5 5 -10 20 -18 32 -19z m49 -158 c-5 -3 -12 -13 -15 -21 -4 -12 -6
-11 -6 3 -1 9 -7 17 -13 17 -9 0 -9 3 1 9 8 5 21 7 28 4 8 -3 10 -9 5 -12z"/>
<path d="M2775 4176 c-15 -22 -44 -152 -45 -198 0 -27 20 -22 21 5 1 16 2 18
6 5 2 -10 14 -18 26 -18 20 -1 21 -2 5 -14 -10 -7 -18 -22 -19 -32 0 -16 -2
-16 -9 4 -5 12 -14 22 -20 22 -8 0 -10 -43 -8 -143 2 -119 6 -148 22 -171 l18
-29 54 54 53 54 12 110 c15 145 7 294 -18 337 -25 44 -74 51 -98 14z"/>
<path d="M1753 3800 c-6 -23 -8 -24 -34 -10 -24 14 -59 -3 -59 -29 0 -9 11
-28 25 -41 14 -13 25 -28 25 -34 0 -8 -2 -8 -8 0 -21 31 -69 14 -74 -27 -1 -8
-4 13 -7 46 -5 54 -8 60 -30 63 -15 2 -28 -3 -33 -12 -7 -13 -13 -14 -29 -5
-45 24 -47 6 -8 -76 21 -44 42 -92 48 -106 9 -26 10 -26 63 -17 51 10 255 5
308 -8 24 -5 27 0 63 88 21 51 41 99 44 106 6 15 -33 17 -42 1 -5 -7 -14 -3
-26 10 -41 44 -70 19 -63 -53 5 -47 5 -49 -8 -26 -17 31 -40 36 -62 15 -29
-29 -18 7 11 37 22 23 25 32 17 46 -17 27 -59 27 -78 0 -16 -22 -16 -22 -16
15 0 39 -18 51 -27 17z m-3 -105 c0 -8 -2 -15 -4 -15 -2 0 -6 7 -10 15 -3 8
-1 15 4 15 6 0 10 -7 10 -15z m60 11 c0 -3 -4 -8 -10 -11 -5 -3 -10 -1 -10 4
0 6 5 11 10 11 6 0 10 -2 10 -4z m-180 -68 l25 -3 -22 -13 c-27 -15 -47 -8
-62 24 -16 36 -14 40 12 17 12 -12 33 -23 47 -25z m119 11 c-24 -15 -45 -11
-24 5 11 8 24 12 28 9 5 -3 3 -9 -4 -14z m224 4 c-16 -45 -49 -57 -74 -26 -13
15 -11 16 13 10 22 -6 30 -3 40 13 16 25 30 26 21 3z m-153 -3 c13 -8 13 -10
-2 -10 -9 0 -20 5 -23 10 -8 13 5 13 25 0z"/>
<path d="M1400 3626 c-22 -9 -24 -14 -15 -31 14 -29 54 -10 45 21 -4 18 -8 19
-30 10z"/>
<path d="M2140 3601 c0 -11 -4 -23 -10 -26 -14 -8 -13 -25 2 -25 6 0 20 -7 30
-17 17 -15 18 -15 18 5 0 12 8 26 18 31 16 10 16 10 0 11 -10 0 -27 9 -38 20
-20 20 -20 20 -20 1z"/>
<path d="M1418 3489 c-21 -12 -24 -65 -4 -72 10 -4 12 -18 9 -50 -5 -40 -3
-47 21 -62 24 -16 27 -16 52 0 23 15 25 22 20 53 -4 21 -7 45 -9 56 -1 10 10
27 25 39 24 18 31 19 55 7 16 -7 23 -15 16 -17 -15 -5 -18 -59 -4 -67 5 -3 12
6 16 22 7 25 8 25 15 7 21 -51 1 -161 -33 -182 -6 -4 -28 -6 -50 -4 -35 2 -38
0 -35 -21 3 -20 9 -23 52 -23 42 0 52 -4 70 -28 17 -23 21 -43 21 -102 0 -68
-2 -76 -29 -104 -37 -39 -77 -41 -112 -6 -22 22 -24 31 -19 69 4 25 3 50 -1
57 -4 7 -7 32 -5 54 1 28 -3 46 -13 54 -14 12 -14 16 -1 34 19 28 19 33 -5 57
-27 27 -60 11 -60 -29 0 -27 -34 -70 -46 -58 -4 3 -15 2 -25 -4 -20 -10 -26
-54 -9 -64 22 -14 9 -27 -20 -21 -19 3 -29 2 -25 -4 3 -5 2 -18 -4 -27 -7 -15
-5 -18 20 -19 21 -1 29 4 31 19 2 11 18 29 36 38 37 21 37 21 32 -58 -3 -57
28 -105 84 -132 55 -27 111 -27 166 2 61 31 83 65 87 134 5 72 -18 119 -73
150 l-38 22 27 12 c71 32 90 136 43 225 -14 27 -26 44 -26 38 0 -8 -15 -7 -51
3 -45 13 -56 13 -96 0 -40 -13 -48 -13 -60 -1 -17 16 -22 17 -45 3z"/>
<path d="M1770 3473 c0 -10 -6 -25 -12 -32 -11 -11 -10 -12 0 -7 7 4 23 1 36
-8 22 -14 24 -14 19 3 -2 10 3 25 12 35 15 15 15 16 -3 16 -11 0 -27 3 -36 6
-11 4 -16 0 -16 -13z"/>
<path d="M1927 3460 c-19 -16 -45 -54 -58 -82 -21 -47 -24 -67 -24 -188 0
-126 2 -139 27 -190 45 -93 123 -163 143 -130 3 6 12 10 20 10 10 0 11 -6 2
-29 -12 -32 -4 -61 16 -61 19 0 48 23 51 40 1 8 9 28 17 44 11 23 11 30 1 34
-16 5 -15 22 2 41 69 81 60 390 -15 485 -49 63 -128 74 -182 26z m112 -19 c32
-32 43 -88 48 -238 4 -117 2 -152 -13 -200 -22 -75 -33 -89 -49 -67 -8 11 -20
15 -34 11 -16 -4 -25 1 -35 22 -22 42 -36 136 -36 240 0 195 53 298 119 232z"/>
<path d="M2537 3472 c-15 -16 -15 -22 -1 -70 12 -40 20 -52 35 -52 12 0 17 -4
14 -11 -4 -6 -14 -8 -22 -5 -11 4 -13 2 -9 -9 17 -45 18 -175 1 -260 -10 -50
-21 -97 -26 -106 -5 -10 -28 -18 -63 -23 -104 -12 -287 -90 -358 -152 -39 -35
-78 -37 -78 -5 0 16 -34 61 -46 61 -3 0 -14 -5 -25 -11 -18 -9 -20 -17 -14
-72 4 -34 10 -66 15 -71 10 -10 30 1 30 17 0 7 -4 6 -10 -3 -7 -11 -10 -8 -10
16 0 18 8 38 20 49 20 18 20 17 20 -26 0 -37 -8 -55 -44 -106 -50 -69 -108
-178 -126 -240 -7 -24 -22 -45 -34 -51 -18 -9 -19 -11 -3 -11 13 -1 17 -6 12
-20 -12 -39 -25 -138 -25 -194 0 -149 40 -286 129 -446 131 -231 382 -484 534
-537 23 -8 47 -16 54 -19 9 -3 8 -15 -5 -46 -16 -41 -16 -42 7 -60 26 -22 39
-23 75 -9 36 13 32 26 -14 50 -40 21 -53 40 -25 40 8 0 12 6 10 13 -3 7 16 19
52 30 57 18 58 18 73 -1 14 -16 19 -18 34 -7 15 11 15 16 5 34 -11 17 -10 23
5 40 11 12 25 21 33 21 7 0 13 5 13 10 0 6 11 15 25 20 14 5 25 16 25 23 0 8
21 34 48 58 120 110 229 252 296 386 43 86 86 231 86 288 0 13 4 26 8 29 5 3
36 -8 70 -24 l61 -29 66 94 c36 51 65 97 65 101 0 3 -13 4 -30 1 -21 -5 -32
-2 -38 10 -8 14 -12 14 -41 -3 -23 -13 -31 -26 -31 -46 0 -15 -4 -28 -10 -28
-5 0 -9 3 -9 8 5 30 -4 31 -50 8 l-48 -25 -6 97 c-7 118 -36 233 -81 327 -35
74 -138 201 -202 251 -99 77 -252 147 -349 161 -43 5 -43 6 -50 54 -13 91 6
218 51 349 44 129 45 134 26 118 -20 -17 -76 -23 -66 -7 4 7 -1 7 -16 -1 -27
-15 -35 -8 -20 19 13 26 8 27 -13 3z m-28 -711 c7 -13 6 -23 -3 -36 -23 -32
-67 2 -52 40 8 21 43 19 55 -4z m159 -9 c2 -7 -3 -12 -12 -12 -9 0 -16 7 -16
16 0 17 22 14 28 -4z m-632 -30 c-18 -16 -18 -16 -6 6 6 13 14 21 18 18 3 -4
-2 -14 -12 -24z m797 -33 c22 -2 22 -2 0 -6 -15 -3 -23 -12 -24 -26 l0 -22
-11 23 c-6 12 -18 22 -27 22 -14 1 -13 2 2 11 9 5 17 20 18 32 0 19 2 19 11
-5 6 -18 17 -28 31 -29z m-228 -9 c0 -29 -32 -41 -41 -16 -9 24 4 48 23 44 12
-2 18 -12 18 -28z m-297 -21 c15 -1 15 -2 0 -6 -10 -2 -19 -12 -19 -21 -1 -15
-2 -15 -6 1 -2 9 -12 18 -21 18 -15 1 -15 2 1 6 9 2 18 12 18 21 1 15 2 15 6
0 2 -10 12 -19 21 -19z m420 10 c10 -14 10 -18 -3 -23 -11 -4 -15 1 -15 21 0
14 1 24 3 22 1 -2 8 -11 15 -20z m-225 -60 c22 -2 22 -2 0 -6 -17 -3 -23 -12
-24 -31 l-1 -27 -7 25 c-4 14 -17 27 -31 31 l-25 6 25 4 c17 3 26 12 30 29 l4
25 4 -27 c2 -20 9 -28 25 -29z m-370 7 c8 -20 -16 -49 -38 -45 -25 5 -29 23
-10 43 20 20 41 21 48 2z m738 -1 c-1 -15 -24 -12 -29 3 -3 9 2 13 12 10 10
-1 17 -7 17 -13z m-533 -36 c14 0 14 -2 2 -6 -8 -3 -18 -11 -22 -17 -6 -8 -10
-8 -15 0 -5 6 -15 14 -23 17 -12 4 -12 6 1 6 9 1 20 9 24 19 8 16 8 16 12 0 3
-10 12 -18 21 -19z m272 8 c12 -4 11 -6 -2 -6 -10 -1 -19 -9 -19 -18 -1 -17
-2 -17 -6 0 -2 9 -14 18 -26 18 -22 2 -22 2 1 6 12 2 22 10 22 16 0 9 2 9 8 1
4 -6 14 -14 22 -17z m221 -4 c12 3 19 0 19 -8 0 -8 8 -19 18 -24 16 -10 16
-10 0 -11 -31 0 -20 -17 15 -24 45 -8 125 -60 138 -90 9 -18 18 -23 43 -22 26
1 32 -3 34 -23 3 -20 0 -23 -17 -18 -25 6 -25 8 -5 -38 22 -54 30 -201 14
-275 -25 -118 -110 -215 -198 -227 -31 -4 -40 -10 -48 -37 -6 -17 -15 -40 -19
-51 -8 -19 -7 -19 16 2 30 26 66 34 60 13 -2 -8 -4 -22 -5 -30 -2 -12 -20 -15
-84 -17 -71 -1 -80 1 -75 15 6 15 4 14 -15 -1 -33 -29 -47 -11 -18 24 14 16
27 38 31 49 3 11 11 20 16 20 5 0 3 -13 -6 -30 -18 -35 -19 -48 -3 -32 20 20
30 14 17 -10 -11 -20 -8 -19 22 6 19 16 39 38 45 49 11 19 8 22 -38 38 -64 21
-111 68 -151 149 -31 63 -32 68 -32 200 0 115 3 142 21 181 40 87 125 158 190
159 16 0 22 6 22 25 0 15 -6 25 -14 25 -8 0 -14 -5 -14 -10 0 -6 -6 -5 -14 2
-8 7 -10 15 -5 16 5 2 10 11 10 20 1 14 2 14 6 -1 3 -13 11 -17 24 -14z m-93
-37 c3 -13 -1 -17 -14 -14 -11 2 -20 11 -22 22 -3 13 1 17 14 14 11 -2 20 -11
22 -22z m220 -10 c3 -13 -1 -17 -14 -14 -11 2 -20 11 -22 22 -3 13 1 17 14 14
11 -2 20 -11 22 -22z m-783 5 c3 -5 1 -13 -5 -16 -15 -9 -43 3 -35 15 8 13 32
13 40 1z m343 -32 c15 -1 15 -2 0 -6 -10 -2 -19 -12 -19 -21 -1 -15 -2 -15 -6
1 -2 9 -12 18 -21 18 -15 1 -15 2 1 6 9 2 18 14 18 26 2 22 2 22 6 0 2 -13 12
-24 21 -24z m-468 -12 c11 -3 21 0 24 7 2 6 5 1 5 -11 1 -14 8 -23 19 -24 14
-1 15 -2 1 -6 -9 -2 -21 -14 -27 -26 -9 -18 -11 -19 -11 -4 -1 9 -9 17 -18 17
-17 1 -17 1 0 14 20 16 22 26 4 26 -8 0 -19 -10 -25 -22 l-11 -23 0 23 c-1 12
-7 22 -13 22 -7 0 -5 5 5 11 9 5 18 18 18 27 1 11 3 10 6 -4 2 -12 13 -24 23
-27z m402 -12 c115 -81 95 -220 -40 -272 l-44 -17 45 -11 c64 -16 96 -40 118
-88 23 -51 24 -96 4 -145 -37 -87 -117 -132 -239 -132 -110 0 -151 15 -215 77
-29 29 -48 53 -42 53 6 0 11 17 11 38 1 41 13 63 47 80 35 19 63 14 94 -17 39
-40 39 -52 -8 -129 -20 -32 7 -52 68 -52 65 0 87 12 110 63 24 54 24 130 -1
184 -21 47 -39 55 -114 51 -56 -3 -81 17 -56 47 11 13 24 15 61 10 58 -8 86 5
105 50 28 68 11 173 -31 189 -25 9 -88 7 -105 -4 -13 -8 -12 -10 3 -10 9 0 17
-4 17 -10 0 -5 -10 -10 -22 -10 l-21 0 21 -23 c12 -13 22 -29 22 -35 0 -7 10
-12 23 -12 21 -1 21 -1 2 -12 -11 -6 -32 -24 -47 -40 -55 -59 -138 -24 -138
59 0 37 6 50 38 84 51 54 97 70 204 67 78 -3 91 -6 130 -33z m146 -36 c14 0
14 -2 2 -6 -8 -3 -18 -11 -22 -17 -5 -8 -8 -7 -8 2 0 6 -8 13 -17 13 -17 1
-17 2 0 6 9 2 18 14 18 26 2 22 2 22 6 0 2 -13 12 -23 21 -24z m-608 -123
c-16 -20 -50 -21 -50 -2 0 8 7 22 16 31 15 15 18 15 32 1 13 -12 13 -18 2 -30z
m34 -48 c8 -5 7 -8 -1 -8 -7 0 -13 -8 -14 -17 0 -14 -2 -15 -6 -3 -3 8 -11 18
-17 22 -8 5 -7 8 2 8 6 0 12 8 13 18 0 13 2 14 6 2 3 -8 11 -18 17 -22z m1139
-13 c1 -5 -6 -11 -15 -13 -11 -2 -18 3 -18 13 0 17 30 18 33 0z m-1200 -60 c1
-5 -6 -11 -15 -13 -11 -2 -18 3 -18 13 0 17 30 18 33 0z m71 -77 c8 -5 7 -8
-1 -8 -7 0 -13 -8 -14 -17 0 -14 -2 -15 -6 -3 -3 8 -11 18 -17 22 -8 5 -7 8 2
8 6 0 12 8 13 18 0 13 2 14 6 2 3 -8 11 -18 17 -22z m66 -3 c0 -8 -6 -15 -14
-15 -17 0 -28 14 -19 24 12 12 33 6 33 -9z m1033 -28 c-3 -5 -10 -4 -15 1 -6
6 -7 16 -3 22 6 9 9 9 16 -1 4 -7 5 -17 2 -22z m285 -12 c-25 -28 -50 -32 -68
-10 -17 20 -7 29 18 16 15 -8 23 -6 37 9 26 29 38 14 13 -15z m-1472 -30 c8
-20 -13 -45 -38 -45 -21 0 -33 22 -24 45 7 20 55 19 62 0z m1202 -37 c14 -14
-2 -48 -24 -48 -20 0 -29 27 -14 45 15 18 22 19 38 3z m-1153 -56 c0 -18 -20
-15 -23 4 -3 10 1 15 10 12 7 -3 13 -10 13 -16z m613 -12 c15 -1 15 -2 -1 -11
-12 -7 -16 -18 -12 -32 5 -21 4 -21 -7 1 -8 17 -18 22 -32 18 -19 -5 -20 -4
-3 8 9 7 17 22 17 32 1 18 1 18 11 2 5 -10 18 -18 27 -18z m-604 -62 c9 -2 9
-8 -1 -28 -9 -18 -13 -20 -13 -7 0 9 -8 17 -17 18 -11 0 -13 3 -5 6 6 2 13 14
13 26 1 16 2 18 6 5 2 -9 10 -18 17 -20z m480 -80 c8 -5 7 -8 -1 -8 -7 0 -13
-8 -14 -17 0 -14 -2 -15 -6 -3 -3 8 -11 18 -17 22 -8 5 -7 8 2 8 6 0 12 8 13
18 0 13 2 14 6 2 3 -8 11 -18 17 -22z m186 -18 c-7 -4 -22 -5 -33 -2 -20 5
-20 6 -1 12 24 9 51 1 34 -10z m374 0 c-10 -4 -25 -5 -32 -2 -22 8 6 21 31 14
20 -5 20 -6 1 -12z m-929 -32 c-11 -20 -12 -28 -4 -20 20 19 32 14 26 -9 l-6
-21 23 21 c32 30 52 27 50 -6 -1 -26 -4 -28 -48 -29 -38 -1 -46 2 -41 15 4 11
1 10 -15 -4 -18 -16 -20 -17 -20 -1 0 21 39 100 46 93 3 -3 -2 -20 -11 -39z
m416 14 c-15 -28 -14 -32 4 -26 9 4 15 1 15 -7 0 -10 3 -10 12 -1 20 20 30 14
17 -10 -7 -13 -11 -25 -10 -28 1 -2 -2 -6 -8 -8 -6 -2 -11 1 -11 8 0 8 -6 8
-21 -1 -37 -19 -45 4 -20 56 12 26 24 45 27 42 3 -3 1 -14 -5 -25z m160 -16
c-9 -10 -14 -27 -20 -65 -1 -3 -6 0 -13 7 -8 8 -17 8 -31 0 -18 -9 -19 -8 -13
18 5 23 4 26 -4 12 -6 -10 -15 -18 -21 -18 -5 0 -2 11 8 24 19 25 48 24 39 -1
-12 -31 20 -5 39 32 14 26 21 33 23 21 2 -9 -1 -23 -7 -30z m263 -7 c11 17 26
13 19 -6 -5 -12 -3 -14 8 -8 12 8 -5 -17 -53 -74 -8 -10 -7 -15 3 -22 10 -6
10 -9 2 -9 -7 0 -13 -8 -14 -17 0 -15 -2 -15 -9 2 -6 14 -1 33 18 65 18 32 21
41 8 31 -26 -21 -42 6 -19 32 11 12 19 14 24 6 5 -8 8 -8 13 0z m-672 -24 c6
-29 2 -35 -27 -35 -14 0 -25 -9 -32 -27 -9 -26 -10 -25 -8 15 2 23 8 49 15 57
19 23 47 18 52 -10z m80 0 c6 -29 2 -35 -27 -35 -14 0 -25 -9 -32 -27 -10 -26
-11 -25 -8 14 1 24 8 49 15 58 19 23 47 18 52 -10z m73 4 c-6 -16 -4 -20 6
-14 12 7 -9 -20 -45 -60 -9 -10 -7 -3 11 43 6 14 4 15 -9 4 -13 -10 -17 -10
-21 2 -3 8 1 20 9 26 11 10 14 10 14 -1 0 -10 5 -9 17 4 23 22 26 21 18 -4z
m615 -4 c0 -8 -7 -15 -15 -15 -8 0 -15 7 -15 15 0 8 7 15 15 15 8 0 15 -7 15
-15z m-1042 -17 c18 -18 14 -38 -7 -38 -23 0 -35 15 -27 35 7 18 18 19 34 3z
m231 -99 c26 0 26 0 4 -11 -15 -7 -23 -20 -23 -37 l-1 -26 -13 24 c-8 14 -22
28 -32 32 -17 7 -17 8 -1 8 12 1 17 10 18 29 0 27 1 27 11 5 7 -15 20 -23 37
-24z m571 1 c-4 -3 -10 -12 -13 -20 -4 -12 -6 -11 -6 3 -1 9 -6 17 -11 17 -7
0 -6 5 2 13 9 10 15 11 24 3 6 -6 8 -13 4 -16z m-140 -13 c12 -4 11 -6 -2 -6
-10 -1 -19 -9 -19 -18 -1 -17 -2 -17 -6 0 -2 9 -9 17 -14 17 -5 0 -4 6 3 14 7
8 15 10 18 6 3 -4 12 -10 20 -13z m-120 -36 l25 -4 -25 -6 c-16 -5 -26 -15
-29 -31 l-4 -25 -6 25 c-4 15 -16 27 -31 31 l-25 6 25 4 c17 3 26 12 29 29 l4
25 6 -25 c5 -16 15 -26 31 -29z m-208 7 c-9 -9 -15 -9 -24 0 -9 9 -7 12 12 12
19 0 21 -3 12 -12z m53 -36 c0 -18 -20 -15 -23 4 -3 10 1 15 10 12 7 -3 13
-10 13 -16z m383 0 c-10 -2 -18 -9 -18 -15 0 -7 -4 -6 -9 3 -14 20 -5 29 22
22 18 -5 19 -7 5 -10z m152 -12 c0 -12 -28 -25 -36 -17 -9 9 6 27 22 27 8 0
14 -5 14 -10z m-330 -14 c0 -8 -5 -18 -11 -22 -14 -8 -33 11 -25 25 10 16 36
13 36 -3z m-246 -39 c8 -14 8 -20 -4 -27 -18 -11 -40 6 -40 32 0 24 28 21 44
-5z m364 -13 c-5 -27 -48 -32 -48 -5 0 22 30 44 43 31 5 -4 7 -16 5 -26z
m-220 -41 c-4 -22 -22 -20 -26 1 -2 10 3 16 13 16 10 0 15 -7 13 -17z"/>
<path d="M2823 2462 c-22 -14 -41 -76 -48 -159 -5 -58 -4 -83 4 -83 6 0 11 8
12 18 0 10 3 12 6 5 2 -7 14 -13 26 -13 20 -1 20 -2 5 -11 -10 -5 -18 -17 -18
-26 0 -14 -2 -14 -14 3 -14 19 -15 19 -22 0 -12 -32 12 -240 32 -283 37 -76
102 -43 124 63 15 72 8 362 -10 414 -13 37 -53 80 -73 80 -7 0 -17 -4 -24 -8z"/>
<path d="M2790 1731 c-7 -15 -7 -21 0 -21 12 0 25 28 17 36 -3 3 -10 -4 -17
-15z"/>
<path d="M2863 1735 c-9 -24 1 -27 15 -5 8 13 8 20 2 20 -6 0 -13 -7 -17 -15z"/>
<path d="M2172 1728 c-14 -14 -16 -28 -3 -28 9 0 24 30 18 36 -2 2 -9 -2 -15
-8z"/>
<path d="M2511 1714 c0 -11 3 -14 6 -6 3 7 2 16 -1 19 -3 4 -6 -2 -5 -13z"/>
<path d="M2252 1728 c-14 -14 -16 -28 -3 -28 9 0 24 30 18 36 -2 2 -9 -2 -15
-8z"/>
<path d="M2326 1724 c-9 -22 3 -32 14 -14 12 19 12 30 1 30 -5 0 -12 -7 -15
-16z"/>
<path d="M1290 3417 c0 -9 -9 -21 -20 -27 -19 -10 -19 -11 3 -33 l22 -22 22
22 22 23 -24 26 c-19 20 -25 23 -25 11z"/>
<path d="M2286 3309 c-15 -18 -15 -20 2 -37 16 -16 18 -16 35 1 16 16 16 18
-2 36 -18 18 -19 18 -35 0z"/>
<path d="M1700 3224 c0 -7 -2 -18 -5 -26 -3 -7 8 -20 25 -30 29 -17 30 -17 30
5 0 13 4 27 10 33 6 6 -3 13 -25 20 -27 9 -35 8 -35 -2z"/>
<path d="M2290 3046 c-11 -29 -4 -56 15 -56 35 0 47 72 13 78 -12 2 -21 -6
-28 -22z"/>
<path d="M1331 2992 c-13 -24 8 -67 33 -67 31 0 42 29 23 59 -20 30 -42 33
-56 8z"/>
<path d="M2217 2971 c3 -11 0 -28 -7 -36 -10 -12 -9 -15 7 -15 10 0 24 -5 31
-12 9 -9 12 -6 12 13 0 14 5 30 12 37 9 9 6 12 -13 12 -14 0 -30 5 -36 11 -9
9 -10 7 -6 -10z"/>
<path d="M1745 2920 c0 -20 5 -30 16 -30 8 0 19 -4 25 -9 5 -6 9 3 10 25 0 21
-4 34 -12 34 -7 0 -18 2 -26 5 -9 4 -13 -4 -13 -25z"/>
<path d="M1851 2886 c-30 -36 9 -78 54 -58 21 10 26 18 23 40 -2 22 -9 28 -34
30 -18 2 -36 -3 -43 -12z"/>
<path d="M1340 2855 c-6 -8 -9 -23 -5 -35 5 -17 2 -20 -22 -21 -15 0 -22 -3
-15 -6 6 -2 12 -13 12 -24 0 -14 -7 -19 -26 -19 -23 0 -26 3 -22 25 4 18 1 25
-11 25 -13 0 -16 -11 -16 -60 0 -48 3 -60 16 -60 12 0 14 7 11 30 -4 27 -1 30
22 30 21 0 26 -5 26 -24 0 -13 -6 -27 -12 -29 -7 -3 1 -5 17 -5 17 0 24 2 18
5 -15 6 -18 103 -4 103 10 0 27 -39 23 -54 -2 -5 5 -5 15 -2 16 6 16 6 0 -12
-9 -10 -17 -21 -17 -24 0 -11 45 -35 78 -42 26 -6 31 -5 26 7 -4 11 2 16 18
19 26 3 37 40 18 64 -18 21 -70 18 -71 -3 -1 -10 -5 -3 -9 16 -5 19 -6 40 -3
48 11 29 -47 72 -67 48z"/>
<path d="M1725 2739 l0 -61 43 5 c38 4 43 2 55 -22 14 -29 50 -39 73 -20 11 9
13 23 8 57 -6 39 -5 44 10 39 10 -4 16 -1 16 9 0 9 -6 14 -12 12 -7 -3 -17 5
-23 16 -12 23 -59 34 -78 17 -8 -6 -18 -6 -27 -1 -8 6 -26 10 -40 10 -24 0
-25 -3 -25 -61z m58 37 c3 -7 0 -19 -6 -25 -9 -9 -9 -14 2 -20 17 -11 7 -41
-13 -41 -10 0 -14 13 -14 50 -1 35 3 50 13 50 7 0 15 -6 18 -14z"/>
<path d="M1525 2704 c0 -30 3 -54 8 -54 4 0 7 7 7 15 0 8 9 15 20 15 13 0 22
9 26 25 8 31 -9 52 -39 53 -20 0 -22 -5 -22 -54z m45 11 c0 -16 -6 -25 -15
-25 -9 0 -15 9 -15 25 0 16 6 25 15 25 9 0 15 -9 15 -25z"/>
<path d="M1600 2756 c0 -2 8 -23 19 -46 15 -33 20 -38 25 -23 4 10 2 19 -3 21
-6 2 -11 12 -11 22 0 10 -7 20 -15 24 -8 3 -15 4 -15 2z"/>
<path d="M1650 2735 c0 -8 2 -15 4 -15 2 0 6 7 10 15 3 8 1 15 -4 15 -6 0 -10
-7 -10 -15z"/>
<path d="M1600 2660 c0 -6 7 -10 15 -10 8 0 15 2 15 4 0 2 -7 6 -15 10 -8 3
-15 1 -15 -4z"/>
<path d="M1610 2590 c0 -23 33 -40 62 -32 46 12 24 52 -28 52 -28 0 -34 -4
-34 -20z"/>
<path d="M1787 2573 c-3 -15 -1 -30 4 -31 5 -2 16 -10 24 -19 13 -13 15 -12
15 4 0 11 5 24 12 31 9 9 9 12 -2 12 -7 0 -21 7 -30 15 -16 15 -18 14 -23 -12z"/>
<path d="M1480 2572 c-13 -15 -13 -19 6 -37 l20 -21 17 22 c15 20 15 23 -2 38
-21 19 -22 19 -41 -2z"/>
<path d="M1707 2384 c-13 -13 5 -24 39 -24 19 0 34 4 34 9 0 17 -59 29 -73 15z"/>
<path d="M1635 2350 c27 -12 43 -12 25 0 -8 5 -22 9 -30 9 -10 0 -8 -3 5 -9z"/>
<path d="M3565 1980 c-10 -11 -14 -20 -8 -20 5 0 14 -8 19 -18 8 -16 10 -16
29 4 l21 20 -22 17 c-20 15 -23 15 -39 -3z"/>
<path d="M3334 1926 c-123 -55 -215 -370 -148 -509 41 -88 47 -93 97 -88 21 3
22 -12 2 -29 -9 -7 -15 -23 -13 -34 5 -32 58 -29 74 3 7 13 20 29 29 34 11 6
15 16 11 31 -4 16 2 30 18 45 32 30 72 122 98 223 24 98 21 209 -9 260 -37 63
-102 89 -159 64z m90 -31 c8 -9 18 -32 22 -53 10 -53 -11 -228 -37 -303 -20
-58 -82 -169 -94 -169 -3 0 -14 9 -25 20 -11 11 -26 17 -34 14 -11 -4 -17 5
-22 31 -20 111 52 382 120 450 29 29 48 31 70 10z"/>
<path d="M3650 1693 c0 -6 -7 -13 -15 -15 -12 -2 -11 -6 3 -25 14 -18 20 -20
34 -10 15 12 15 15 -3 37 -10 14 -19 20 -19 13z"/>
<path d="M3022 1435 c-8 -17 -5 -23 13 -31 18 -9 24 -7 37 17 16 27 15 27 -12
31 -22 3 -31 -1 -38 -17z"/>
<path d="M3587 1432 c-19 -21 -22 -57 -6 -67 17 -11 50 26 47 54 -4 31 -20 37
-41 13z"/>
<path d="M3130 1380 c0 -5 -6 -9 -12 -7 -7 1 -14 -8 -16 -20 -5 -31 36 -50 67
-33 24 12 26 57 3 53 -6 -2 -12 2 -12 7 0 6 -7 10 -15 10 -8 0 -15 -4 -15 -10z"/>
<path d="M3484 1349 c-10 -11 -12 -19 -6 -19 6 0 18 -7 26 -16 14 -13 16 -13
16 0 0 8 7 21 15 29 12 13 11 15 -10 19 -16 3 -31 -2 -41 -13z"/>
<path d="M2974 1312 c7 -11 -15 -85 -28 -94 -5 -3 8 -9 30 -13 60 -10 64 -13
61 -37 -1 -16 5 -25 25 -32 39 -14 55 5 63 75 9 73 -4 93 -51 86 -18 -3 -37 0
-43 6 -9 9 -11 8 -6 -4 3 -9 -1 -24 -11 -34 -17 -17 -17 -17 6 -11 14 4 20 4
14 -1 -6 -4 -13 -16 -17 -25 -3 -10 -16 -18 -28 -18 -16 0 -20 4 -14 18 3 9 9
31 12 47 4 17 11 33 17 37 6 5 1 8 -12 8 -13 0 -21 -4 -18 -8z"/>
<path d="M2848 1260 c-1 -28 -3 -50 -2 -50 0 0 15 20 33 45 18 25 28 45 22 45
-5 0 -13 -9 -16 -20 -9 -29 -28 -25 -23 5 3 14 2 25 -2 25 -5 0 -10 -23 -12
-50z"/>
<path d="M3184 1285 c-4 -8 -4 -24 -1 -35 3 -11 2 -20 -1 -20 -4 0 -8 -18 -9
-40 -2 -29 1 -40 12 -40 7 0 17 4 20 10 3 6 -1 7 -9 4 -19 -7 -19 -4 -6 31 5
14 14 24 19 21 5 -4 11 0 14 6 10 30 17 -3 8 -41 -5 -24 -5 -41 0 -41 5 0 9 8
9 19 0 20 23 45 33 35 3 -4 3 -19 0 -35 -3 -16 -2 -29 3 -29 16 0 15 68 0 77
-8 4 -16 26 -18 48 -3 37 -5 40 -36 43 -22 2 -34 -2 -38 -13z"/>
<path d="M3373 1235 c-13 -9 -23 -22 -23 -28 0 -7 -9 -18 -21 -25 -29 -19 -21
-54 15 -63 15 -4 26 -5 23 -3 -12 12 15 62 39 73 18 8 24 18 22 33 -4 28 -26
33 -55 13z m-13 -75 c0 -11 -7 -23 -15 -27 -21 -8 -28 1 -20 26 8 27 35 27 35
1z"/>
<path d="M3140 1230 c0 -5 5 -10 10 -10 6 0 10 5 10 10 0 6 -4 10 -10 10 -5 0
-10 -4 -10 -10z"/>
<path d="M2836 1154 c-13 -33 -6 -44 24 -44 22 0 30 5 30 18 0 26 -46 47 -54
26z"/>
<path d="M3400 1159 c0 -5 5 -7 10 -4 6 3 10 8 10 11 0 2 -4 4 -10 4 -5 0 -10
-5 -10 -11z"/>
<path d="M3432 1164 c8 -13 -9 -54 -23 -54 -6 0 -9 7 -5 15 3 8 1 15 -5 15
-21 0 -3 -35 18 -36 16 -1 22 6 25 28 3 16 0 32 -5 35 -6 3 -8 2 -5 -3z"/>
<path d="M3471 1148 c5 -42 -2 -70 -16 -64 -9 3 -15 0 -15 -9 0 -8 4 -15 9
-15 17 0 68 49 74 70 6 25 -1 26 -19 3 -12 -17 -13 -16 -14 5 0 12 -5 22 -10
22 -6 0 -10 -6 -9 -12z"/>
<path d="M2990 1101 c0 -5 -7 -17 -16 -25 -8 -9 -11 -16 -5 -16 5 0 16 -6 23
-13 11 -12 16 -11 29 7 15 20 15 22 -7 39 -13 10 -24 14 -24 8z"/>
<path d="M3247 1089 c-13 -8 -17 -18 -13 -35 5 -19 2 -24 -12 -24 -15 0 -18
-6 -14 -28 3 -23 9 -28 35 -30 40 -2 62 11 54 33 -5 11 -13 14 -27 10 -33 -11
-23 18 13 35 17 8 32 22 32 30 0 18 -43 24 -68 9z"/>
<path d="M2850 920 c0 -13 34 -30 62 -30 l23 1 -24 19 c-24 21 -61 27 -61 10z"/>
<path d="M2930 862 c0 -13 24 -22 58 -22 17 0 23 3 16 10 -14 14 -74 24 -74
12z"/>
<path d="M2100 772 c0 -5 6 -17 14 -27 13 -19 14 -18 13 8 -1 15 -8 27 -14 27
-7 0 -13 -4 -13 -8z"/>
<path d="M2146 725 c-11 -8 -17 -17 -14 -20 2 -3 13 4 23 15 21 23 18 25 -9 5z"/>
</g>
</svg>
