<?xml version="1.0" standalone="no"?>
<!DOCTYPE svg PUBLIC "-//W3C//DTD SVG 20010904//EN"
 "http://www.w3.org/TR/2001/REC-SVG-20010904/DTD/svg10.dtd">
<svg version="1.0" xmlns="http://www.w3.org/2000/svg"
 width="499.000000pt" height="499.000000pt" viewBox="0 0 499.000000 499.000000"
 preserveAspectRatio="xMidYMid meet">

<g transform="translate(0.000000,499.000000) scale(0.100000,-0.100000)"
fill="#d3d3d380" stroke="none">
<path d="M2906 3991 c-31 -17 -46 -41 -27 -41 6 0 11 -7 11 -15 0 -9 -9 -15
-21 -15 -16 0 -20 5 -16 19 7 29 -34 32 -85 7 -24 -12 -44 -24 -46 -28 -2 -5
-12 -8 -23 -8 -11 0 -27 -10 -37 -21 -9 -12 -49 -55 -89 -96 -61 -64 -71 -78
-62 -94 13 -25 4 -39 -25 -39 -32 0 -42 -15 -55 -85 -7 -33 -16 -69 -21 -80
-11 -27 -22 -94 -20 -125 1 -14 3 -33 3 -43 1 -9 9 -20 19 -23 24 -7 23 -37
-2 -59 -19 -18 -50 -15 -50 5 0 6 -10 8 -24 4 -19 -4 -26 -1 -31 18 -13 40
-36 58 -76 58 -30 0 -42 -6 -59 -30 -16 -22 -29 -30 -51 -30 -33 0 -89 -25
-89 -40 0 -6 5 -10 10 -10 6 0 10 -7 10 -16 0 -9 -7 -14 -17 -12 -11 2 -17 11
-15 21 4 26 -50 22 -104 -8 -25 -14 -51 -25 -58 -25 -8 0 -26 -16 -41 -36 -15
-20 -57 -65 -92 -100 -58 -57 -65 -69 -41 -66 3 1 3 -11 -1 -26 -5 -17 -14
-27 -27 -27 -30 -1 -44 -14 -44 -41 0 -13 -4 -24 -10 -24 -5 0 -10 -16 -10
-35 0 -20 -7 -49 -15 -65 -9 -17 -13 -30 -11 -30 3 0 0 -15 -5 -32 -10 -37 -1
-131 12 -123 4 3 13 -3 19 -14 8 -16 7 -24 -9 -40 -17 -17 -17 -23 -7 -64 7
-26 22 -59 34 -74 12 -15 23 -34 24 -43 1 -8 2 -22 3 -30 6 -45 25 -70 54 -70
31 0 45 -18 30 -41 -14 -22 -11 -29 11 -29 15 0 20 -7 20 -24 0 -25 41 -66 66
-66 8 0 14 -5 14 -12 0 -6 6 -4 13 7 8 10 19 15 25 11 15 -9 16 -36 1 -36 -5
0 -7 -5 -4 -10 3 -5 19 -10 34 -10 15 0 36 -9 46 -20 15 -17 27 -19 82 -15 34
2 63 1 63 -4 0 -14 67 -30 79 -18 8 8 11 8 11 -1 0 -13 -7 -15 -65 -12 -22 1
-48 9 -57 17 -10 9 -18 12 -18 7 1 -22 19 -33 60 -36 l45 -3 -30 -18 c-16 -10
-21 -15 -10 -12 11 4 34 9 50 12 28 6 29 5 15 -13 -14 -18 -14 -18 6 -1 29 24
32 22 30 -23 0 -23 5 -44 12 -49 18 -11 35 -75 21 -80 -6 -2 -4 -8 5 -15 18
-14 370 -1412 360 -1435 -7 -17 -14 -45 -16 -73 -1 -10 -7 -18 -13 -18 -5 0
-4 -4 3 -9 10 -6 10 -10 -3 -21 -23 -19 -18 -33 10 -26 29 7 33 -8 10 -38 -16
-21 -20 -83 -7 -103 14 -22 80 -27 108 -8 25 16 26 21 21 76 -5 55 6 90 16 52
4 -15 5 -15 6 2 0 11 10 26 21 33 26 16 26 32 0 25 -21 -6 -27 11 -11 36 6 9
4 19 -5 28 -7 8 -18 22 -24 31 -8 15 -11 15 -20 2 -9 -12 -10 -8 -6 15 3 17
17 118 31 225 65 516 146 1138 151 1167 3 18 13 34 23 36 14 4 13 5 -2 6 -15
1 -17 7 -11 37 5 27 4 35 -5 30 -6 -4 -11 -19 -11 -33 0 -53 -182 -1429 -192
-1456 -7 -18 -14 -25 -21 -18 -5 5 -15 8 -21 5 -13 -4 -352 1334 -349 1379 1
15 -2 27 -7 27 -6 0 -10 5 -10 11 0 5 5 7 10 4 6 -3 10 1 10 9 0 10 -6 13 -16
9 -11 -4 -15 -1 -13 13 2 10 0 25 -5 32 -4 8 -14 38 -21 67 -12 53 -12 53 12
50 19 -2 21 0 11 12 -10 13 -5 14 36 8 46 -7 48 -7 41 14 -3 11 -4 21 -2 21
15 0 67 -23 67 -30 0 -16 -21 -22 -35 -10 -9 7 -15 8 -15 2 0 -18 33 -23 48
-8 13 12 13 18 2 30 -7 9 -8 16 -3 16 5 0 18 7 29 16 18 14 18 15 -4 4 -13 -6
-37 -10 -55 -8 l-32 4 30 7 c45 11 80 32 77 45 -1 7 3 11 10 10 6 -2 14 6 16
17 5 23 31 55 44 55 5 0 7 -3 4 -8 -2 -4 1 -15 8 -25 12 -16 14 -16 30 2 10
11 19 31 21 46 3 33 18 44 50 37 17 -3 28 3 41 25 10 15 26 38 37 50 15 17 18
30 13 59 -7 35 -7 36 18 30 23 -6 26 -4 26 23 0 16 6 34 14 40 21 17 28 70 14
109 -11 30 -11 35 5 47 23 16 34 80 18 99 -9 11 -10 20 -1 36 6 11 9 29 6 38
-4 12 7 32 30 58 53 56 92 121 110 179 8 28 23 66 32 85 15 31 21 35 52 32 42
-4 61 -24 79 -83 24 -81 30 -91 50 -84 10 3 23 -1 30 -9 12 -14 5 -46 -11 -46
-9 0 10 -30 56 -85 l25 -30 18 25 c10 14 18 30 19 37 1 7 9 20 18 29 15 14 18
14 36 -8 19 -23 19 -23 34 -3 8 11 16 30 16 41 0 27 25 48 45 40 17 -6 65 34
65 54 0 7 10 20 21 29 19 15 20 21 10 40 -17 30 -6 55 19 48 11 -3 20 -1 20 4
0 6 9 31 21 56 18 39 20 54 11 95 -8 44 -7 50 12 63 11 8 17 15 12 15 -5 0 -3
7 4 15 9 11 9 22 1 46 -6 17 -8 42 -5 56 10 38 -23 92 -55 90 -20 -2 -27 3
-29 21 -4 27 22 40 43 22 11 -9 15 -9 15 -1 0 16 -42 104 -57 119 -7 7 -13 22
-13 32 0 25 -17 35 -60 35 -42 0 -55 30 -18 44 22 8 22 8 -10 25 -17 9 -39 29
-49 44 -23 36 -55 72 -65 72 -4 0 -3 -9 4 -21 11 -17 10 -22 -6 -34 -14 -11
-23 -12 -33 -4 -18 16 -16 39 5 55 16 12 15 13 -5 14 -12 0 -32 4 -45 9 -13 5
-43 15 -68 22 -25 7 -50 17 -57 21 -16 12 -94 13 -102 1 -13 -19 -40 -22 -45
-5 -8 23 -53 24 -90 3z m35 -14 c-1 -12 -15 -9 -19 4 -3 6 1 10 8 8 6 -3 11
-8 11 -12z m53 -62 c3 -8 -2 -21 -10 -29 -8 -8 -21 -13 -29 -10 -15 6 -20 35
-8 47 12 12 41 7 47 -8z m-224 -31 c0 -31 -26 -42 -48 -21 -14 15 -14 18 2 36
22 25 46 17 46 -15z m37 30 c-3 -3 -12 -4 -19 -1 -8 3 -5 6 6 6 11 1 17 -2 13
-5z m341 -22 c4 -28 -24 -40 -45 -19 -14 13 -14 19 -3 32 18 22 44 15 48 -13z
m202 -42 c0 -5 -4 -10 -10 -10 -5 0 -10 5 -10 10 0 6 5 10 10 10 6 0 10 -4 10
-10z m-456 -57 c4 -9 0 -23 -8 -31 -12 -13 -18 -13 -30 -2 -28 22 -17 47 20
49 7 1 15 -7 18 -16z m-226 -37 c4 -17 -12 -35 -30 -36 -4 0 -14 7 -23 16 -12
13 -13 19 -4 31 16 19 53 12 57 -11z m348 3 c10 -17 -13 -36 -27 -22 -12 12
-4 33 11 33 5 0 12 -5 16 -11z m462 -77 c4 -28 -24 -40 -45 -19 -21 21 -9 49
19 45 15 -2 24 -11 26 -26z m-143 -6 c0 -10 10 -26 23 -36 12 -10 22 -22 22
-26 0 -4 9 -17 19 -28 44 -47 57 -294 18 -343 -5 -7 -7 -13 -4 -13 12 0 -14
-56 -39 -85 -14 -17 -29 -35 -32 -40 -13 -21 -78 -51 -107 -50 -16 1 -43 8
-59 16 -36 17 -86 66 -86 84 0 7 -6 18 -14 24 -21 18 -48 127 -47 196 0 74 13
136 40 190 10 22 17 43 15 46 -5 9 74 70 104 79 15 5 54 7 87 6 50 -2 60 -5
60 -20z m-421 -10 c71 -32 103 -92 90 -164 -7 -34 -63 -98 -98 -111 -16 -6
-12 -11 27 -30 60 -29 92 -90 83 -156 -12 -75 -109 -143 -192 -133 -18 2 -35
1 -36 -3 -2 -4 -32 -3 -68 2 -49 7 -71 16 -93 37 -20 18 -31 23 -34 14 -5 -13
-23 -7 -23 9 0 6 4 8 9 5 5 -3 8 19 8 48 -1 46 3 58 24 75 38 32 119 21 119
-18 0 -6 5 -11 10 -11 6 0 10 -16 10 -35 0 -40 -36 -71 -71 -62 -35 9 -2 -20
37 -33 46 -15 85 -5 128 33 31 28 36 39 42 93 6 57 5 63 -22 93 -19 21 -46 36
-79 45 l-50 13 35 7 c51 11 78 32 95 72 18 43 20 94 4 94 -7 0 -9 9 -6 21 8
30 -1 48 -34 64 -36 19 -63 19 -105 -1 l-34 -16 32 -17 c42 -20 56 -57 37 -97
-11 -23 -21 -30 -53 -32 -56 -5 -76 18 -76 85 0 49 3 57 31 81 50 42 68 49
135 51 49 1 76 -4 118 -23z m-424 -101 c0 -8 -6 -15 -14 -15 -17 0 -28 14 -19
24 12 12 33 6 33 -9z m34 -120 c3 -9 -1 -18 -10 -22 -19 -7 -28 2 -21 22 8 19
23 19 31 0z m1101 -76 c0 -17 -6 -25 -21 -27 -29 -4 -41 28 -17 45 24 18 38
11 38 -18z m-75 -85 c0 -8 -5 -12 -10 -9 -6 4 -8 11 -5 16 9 14 15 11 15 -7z
m-1300 -4 c0 -5 -11 -10 -25 -10 -16 0 -25 -6 -25 -15 0 -13 -4 -14 -20 -5
-37 20 -20 35 48 39 12 0 22 -3 22 -9z m-140 -35 c0 -8 -4 -15 -9 -15 -13 0
-22 16 -14 24 11 11 23 6 23 -9z m47 -61 c3 -8 -2 -23 -11 -32 -15 -15 -17
-15 -32 0 -21 21 -11 48 16 48 11 0 23 -7 27 -16z m363 -14 c0 -11 -4 -21 -9
-24 -5 -3 -7 -16 -4 -29 3 -12 3 -20 0 -17 -3 3 -5 8 -4 12 1 4 -8 15 -20 23
-27 19 -29 40 -6 53 22 13 43 4 43 -18z m-550 10 c0 -5 -7 -7 -15 -4 -8 4 -15
8 -15 10 0 2 7 4 15 4 8 0 15 -4 15 -10z m340 -5 c17 -21 4 -54 -20 -48 -32 9
-43 29 -25 47 20 20 29 20 45 1z m-374 -10 c7 -18 -13 -45 -33 -45 -17 0 -27
24 -19 45 7 20 45 19 52 0z m122 -113 c4 -26 -22 -40 -43 -22 -11 9 -12 17 -4
32 13 25 43 19 47 -10z m600 -14 c-5 -34 -38 -37 -38 -4 0 20 5 26 21 26 15 0
20 -5 17 -22z m-830 -14 c3 -23 -18 -37 -43 -28 -16 6 -20 35 -8 48 14 14 48
1 51 -20z m1576 18 c8 -13 -11 -35 -23 -28 -16 10 -14 36 3 36 8 0 17 -4 20
-8z m-1224 -28 c0 -8 -7 -14 -15 -14 -15 0 -21 21 -9 33 10 9 24 -2 24 -19z
m1320 -24 c0 -5 -7 -10 -15 -10 -8 0 -15 5 -15 10 0 6 7 10 15 10 8 0 15 -4
15 -10z m-862 -38 c4 -28 -24 -41 -44 -20 -20 20 -7 50 20 46 13 -2 22 -12 24
-26z m-140 -10 c2 -12 14 -30 28 -41 13 -10 24 -22 24 -27 0 -4 8 -16 17 -26
9 -10 18 -26 19 -36 1 -9 5 -35 9 -57 19 -111 18 -157 -6 -232 -12 -41 -32
-84 -43 -97 -12 -12 -27 -33 -34 -47 -24 -45 -113 -67 -167 -41 -37 17 -95 72
-95 88 0 6 -6 17 -13 23 -22 18 -42 120 -42 216 0 74 4 97 22 126 11 20 24 50
28 67 7 36 29 57 46 46 7 -4 9 -3 6 3 -8 12 19 38 53 52 14 5 52 9 85 7 53 -2
60 -5 63 -24z m-418 -9 c111 -56 121 -177 21 -251 -17 -12 -35 -22 -41 -22 -6
0 -8 -4 -5 -10 3 -5 14 -10 23 -10 23 0 80 -52 92 -85 43 -113 -39 -207 -193
-220 -87 -7 -149 9 -193 50 -45 42 -48 102 -8 142 45 45 123 16 140 -54 7 -28
-28 -73 -58 -73 -26 0 -22 -15 7 -28 75 -34 168 15 183 96 12 70 6 94 -31 129
-27 24 -46 33 -71 33 -49 0 -54 17 -7 25 54 9 92 51 98 109 4 27 1 51 -6 60
-6 7 -9 21 -5 30 9 23 -12 44 -55 57 -30 9 -44 8 -76 -6 l-40 -16 27 -15 c70
-37 62 -120 -12 -139 -18 -4 -34 0 -53 16 -25 19 -28 27 -26 75 2 43 8 58 28
78 42 40 77 53 143 55 51 1 74 -4 118 -26z m-427 -90 c9 -9 -13 -34 -24 -27
-14 8 -11 34 4 34 8 0 17 -3 20 -7z m1110 -33 c3 -11 1 -23 -5 -26 -13 -9 -42
21 -34 35 11 18 33 13 39 -9z m-1077 -95 c3 -8 3 -19 -1 -25 -10 -16 -35 7
-28 26 7 18 22 18 29 -1z m1104 -81 c0 -19 -5 -24 -25 -24 -30 0 -35 33 -8 49
23 12 33 5 33 -25z m-75 -74 c3 -5 1 -10 -4 -10 -6 0 -11 5 -11 10 0 6 2 10 4
10 3 0 8 -4 11 -10z m-896 -234 c9 -11 8 -17 -4 -30 -21 -20 -45 -10 -45 20 0
27 30 33 49 10z m747 -17 c10 -17 -13 -36 -27 -22 -12 12 -4 33 11 33 5 0 12
-5 16 -11z m94 -49 c0 -5 -4 -10 -10 -10 -5 0 -10 5 -10 10 0 6 5 10 10 10 6
0 10 -4 10 -10z m-295 -105 c0 -23 -34 -33 -45 -14 -13 20 1 40 24 37 13 -2
21 -10 21 -23z m-439 -12 c-1 -23 -6 -28 -26 -28 -18 0 -25 5 -25 20 0 12 9
22 25 26 14 4 25 7 26 8 1 1 1 -11 0 -26z m184 -38 c0 -18 -5 -25 -19 -25 -11
0 -23 5 -26 10 -11 18 3 40 25 40 15 0 20 -7 20 -25z m165 -49 c0 -29 -20 -30
-33 -1 -11 25 -11 26 10 23 15 -2 23 -10 23 -22z m-145 -21 c24 -25 22 -36 -2
-12 -7 7 -24 18 -38 24 -23 11 -23 12 -4 12 11 1 31 -10 44 -24z m90 -5 c0 -5
-9 -10 -20 -10 -11 0 -20 5 -20 10 0 6 9 10 20 10 11 0 20 -4 20 -10z m65 -10
c-3 -5 -12 -10 -18 -10 -7 0 -6 4 3 10 19 12 23 12 15 0z m55 -9 c0 -5 -13
-14 -30 -20 -16 -5 -30 -6 -30 -1 0 7 23 18 58 29 1 1 2 -3 2 -8z m-90 -23 c0
-16 -43 -19 -58 -4 -15 15 -14 16 21 14 20 -2 37 -6 37 -10z m399 -1932 c0 -7
-2 -6 -6 2 -2 6 -9 10 -14 6 -5 -3 -9 2 -9 12 0 13 3 14 15 4 8 -7 15 -18 14
-24z m19 9 c-3 -3 -9 2 -12 12 -6 14 -5 15 5 6 7 -7 10 -15 7 -18z"/>
<path d="M3216 3645 c-3 -8 -11 -14 -18 -13 -32 7 -90 -189 -66 -219 7 -9 7
-17 -1 -26 -23 -29 20 -247 49 -247 6 0 10 -6 10 -13 0 -24 20 -34 53 -28 18
4 32 13 32 20 0 7 7 18 16 24 22 17 36 46 43 92 4 21 11 42 17 46 7 4 7 9 2
12 -6 4 -9 30 -7 59 2 36 -2 58 -12 70 -10 11 -12 18 -5 23 29 17 -3 145 -48
191 -26 27 -56 31 -65 9z"/>
<path d="M2364 2902 c-55 -47 -64 -76 -71 -241 -5 -121 16 -237 44 -248 7 -3
13 -11 13 -18 0 -40 75 -39 91 2 5 13 13 22 18 19 8 -5 31 33 38 64 2 8 6 56
9 105 5 77 3 93 -10 104 -15 12 -15 16 -2 30 13 14 13 24 2 71 -16 68 -40 116
-65 130 -27 14 -32 13 -67 -18z"/>
<path d="M2963 2002 c-33 -33 -39 -52 -17 -52 15 0 53 -37 54 -52 0 -5 -25 -8
-55 -8 -52 0 -57 2 -75 33 -16 26 -20 28 -20 11 0 -35 22 -53 70 -56 l45 -3
-32 -17 c-39 -22 -47 -22 -39 -3 3 8 1 15 -4 15 -6 0 -10 -9 -10 -20 0 -24 5
-24 60 -5 53 19 54 19 46 -2 -6 -15 -5 -15 13 1 20 18 35 9 26 -16 -3 -8 -1
-25 5 -39 l10 -24 -5 27 c-10 54 11 66 67 38 18 -9 16 -6 -7 14 -29 24 -18 37
14 17 19 -12 53 -1 47 15 -7 18 24 18 49 1 13 -10 15 -16 6 -21 -6 -4 -18 -2
-26 4 -9 7 -15 8 -15 2 0 -18 33 -23 49 -7 14 14 14 17 1 25 -13 9 -13 11 0
20 11 7 5 10 -25 11 -39 1 -39 1 -14 12 23 11 25 15 16 37 l-10 25 -4 -23 c-5
-24 -66 -57 -85 -46 -5 4 -21 0 -35 -7 -28 -15 -47 -7 -72 31 -15 22 -15 23 5
12 12 -6 24 -9 27 -6 3 3 16 7 30 8 18 2 24 -1 20 -11 -4 -11 -8 -11 -22 -1
-14 12 -15 11 -2 -5 12 -15 16 -16 30 -3 9 8 28 18 44 21 15 4 27 11 27 17 0
5 -4 6 -10 3 -5 -3 -10 -1 -10 5 0 8 -6 7 -21 -1 -18 -9 -24 -8 -31 4 -30 54
-73 61 -115 19z m72 -22 c4 -6 -5 -10 -19 -10 -14 0 -26 5 -26 10 0 6 9 10 19
10 11 0 23 -4 26 -10z"/>
<path d="M3245 1920 c-3 -5 -1 -10 4 -10 6 0 11 5 11 10 0 6 -2 10 -4 10 -3 0
-8 -4 -11 -10z"/>
<path d="M2401 1886 c-7 -8 -22 -17 -34 -19 -20 -3 -21 -4 -4 -12 13 -5 25 -2
40 13 11 12 18 24 15 27 -3 3 -11 -1 -17 -9z"/>
<path d="M2342 1828 c7 -15 15 -23 17 -17 2 6 -4 18 -13 27 -15 15 -15 15 -4
-10z"/>
<path d="M2058 1813 c6 -2 18 -2 25 0 6 3 1 5 -13 5 -14 0 -19 -2 -12 -5z"/>
<path d="M3137 1809 c7 -7 15 -10 18 -7 3 3 -2 9 -12 12 -14 6 -15 5 -6 -5z"/>
<path d="M3191 1801 c-21 -5 -22 -8 -8 -19 12 -10 18 -10 31 3 26 26 22 29
-23 16z"/>
<path d="M2200 1780 c6 -11 13 -20 16 -20 2 0 0 9 -6 20 -6 11 -13 20 -16 20
-2 0 0 -9 6 -20z"/>
<path d="M3011 1729 c-1 -17 29 -49 45 -49 5 0 1 5 -9 11 -10 6 -22 20 -27 32
-6 15 -9 17 -9 6z"/>
<path d="M3098 1655 c2 -14 -2 -33 -9 -43 -13 -15 -12 -16 4 -3 17 14 24 71 8
71 -4 0 -6 -11 -3 -25z"/>
<path d="M2120 1604 c-13 -32 -13 -51 0 -59 6 -3 7 1 4 9 -3 9 -1 29 4 46 13
36 5 40 -8 4z"/>
<path d="M2950 1550 c-21 -21 -27 -64 -11 -74 5 -4 7 3 4 15 -4 12 3 32 16 50
25 33 20 38 -9 9z"/>
</g>
</svg>
