<?xml version="1.0" standalone="no"?>
<!DOCTYPE svg PUBLIC "-//W3C//DTD SVG 20010904//EN"
 "http://www.w3.org/TR/2001/REC-SVG-20010904/DTD/svg10.dtd">
<svg version="1.0" xmlns="http://www.w3.org/2000/svg"
 width="457.000000pt" height="546.000000pt" viewBox="0 0 457.000000 546.000000"
 preserveAspectRatio="xMidYMid meet">

<g transform="translate(0.000000,546.000000) scale(0.100000,-0.100000)"
fill="#d3d3d332" stroke="none">
<path d="M1852 5213 c-5 -16 -274 -752 -597 -1638 -323 -885 -699 -1918 -837
-2294 -137 -376 -247 -690 -244 -697 8 -20 651 -21 659 -1 2 6 105 297 227
645 l223 632 990 -2 990 -3 226 -643 226 -642 340 2 c332 3 340 3 342 23 2 11
-377 1060 -841 2330 l-843 2310 -425 3 -426 2 -10 -27z m441 -655 c8 -24 182
-510 386 -1081 204 -571 371 -1040 371 -1042 0 -3 -351 -5 -781 -5 -621 0
-780 3 -777 13 142 405 775 2157 780 2157 3 0 13 -19 21 -42z"/>
</g>
</svg>
