<?xml version="1.0" standalone="no"?>
<!DOCTYPE svg PUBLIC "-//W3C//DTD SVG 20010904//EN"
 "http://www.w3.org/TR/2001/REC-SVG-20010904/DTD/svg10.dtd">
<svg version="1.0" xmlns="http://www.w3.org/2000/svg"
 width="500.000000pt" height="500.000000pt" viewBox="0 0 500.000000 500.000000"
 preserveAspectRatio="xMidYMid meet">

<g transform="translate(0.000000,500.000000) scale(0.100000,-0.100000)"
fill="#e42183 " stroke="none">
<path d="M1880 4634 c-369 -66 -639 -380 -701 -813 -14 -101 -7 -266 16 -376
78 -370 314 -654 628 -755 37 -12 67 -25 67 -28 0 -4 -21 -69 -46 -145 -65
-195 -57 -211 96 -196 47 4 94 8 106 8 23 1 20 31 70 -544 18 -200 31 -307 40
-322 18 -28 65 -31 90 -6 19 20 20 2 -26 521 -17 195 -29 356 -26 359 3 3 52
10 108 15 114 11 148 25 148 64 0 13 -32 83 -71 155 -39 72 -69 132 -67 134 1
2 34 20 71 39 l68 36 57 -44 c31 -24 85 -59 120 -76 l63 -32 -24 -41 c-13 -23
-48 -86 -76 -139 -75 -140 -62 -161 102 -173 53 -4 99 -11 102 -15 2 -3 0 -47
-5 -96 -5 -49 -23 -239 -40 -423 -28 -305 -30 -335 -15 -357 19 -29 64 -32 88
-6 12 13 24 110 55 440 22 233 42 426 45 429 3 3 54 1 112 -4 122 -10 148 -3
153 40 3 26 -22 118 -68 253 l-18 52 83 27 c325 105 572 425 631 815 74 491
-178 965 -583 1097 -114 37 -278 43 -394 14 -80 -20 -182 -64 -260 -113 l-36
-22 -49 43 c-70 62 -171 119 -272 154 -74 25 -105 30 -202 33 -63 1 -126 1
-140 -2z m308 -147 c236 -83 428 -299 507 -572 118 -407 -17 -833 -327 -1039
-88 -59 -186 -89 -304 -94 -122 -5 -194 11 -314 70 -70 34 -102 58 -181 137
-109 109 -169 205 -218 345 -108 308 -65 651 114 901 90 127 230 226 375 267
95 26 250 20 348 -15z m982 -68 c246 -68 437 -287 512 -586 33 -133 31 -351
-6 -488 -49 -186 -138 -340 -264 -456 -84 -77 -156 -121 -254 -157 -64 -23
-88 -27 -193 -27 -117 0 -149 6 -240 42 -42 17 -175 101 -175 110 0 3 22 29
48 58 317 346 347 930 70 1338 -45 67 -47 62 47 114 131 72 309 93 455 52z
m-930 -1845 c29 -52 50 -97 48 -99 -2 -2 -62 -9 -133 -15 -72 -5 -147 -13
-167 -16 -21 -3 -38 -2 -38 3 0 5 15 54 33 108 l34 100 69 6 c38 3 77 6 86 7
12 1 32 -27 68 -94z m696 6 l43 0 30 -94 c36 -110 38 -129 14 -122 -10 2 -84
10 -165 17 -82 7 -148 16 -148 22 0 5 21 50 48 99 l47 89 44 -5 c24 -3 63 -6
87 -6z"/>
</g>
</svg>
