<?xml version="1.0" standalone="no"?>
<!DOCTYPE svg PUBLIC "-//W3C//DTD SVG 20010904//EN"
 "http://www.w3.org/TR/2001/REC-SVG-20010904/DTD/svg10.dtd">
<svg version="1.0" xmlns="http://www.w3.org/2000/svg"
 width="500.000000pt" height="500.000000pt" viewBox="0 0 500.000000 500.000000"
 preserveAspectRatio="xMidYMid meet">

<g transform="translate(0.000000,500.000000) scale(0.100000,-0.100000)"
fill="#D3D3D3 " stroke="none">
<path d="M500 3800 l0 -800 600 0 600 0 0 -54 c0 -74 -26 -215 -56 -311 -116
-363 -417 -664 -779 -779 -96 -31 -238 -56 -311 -56 l-54 0 0 -200 0 -200 25
0 c117 0 341 39 470 83 483 161 861 539 1022 1022 78 232 83 307 83 1270 l0
825 -800 0 -800 0 0 -800z m1200 0 l0 -400 -400 0 -400 0 0 400 0 400 400 0
400 0 0 -400z"/>
<path d="M2900 3800 l0 -800 600 0 600 0 0 -54 c0 -74 -26 -215 -56 -311 -116
-363 -417 -664 -779 -779 -96 -31 -238 -56 -311 -56 l-54 0 0 -200 0 -200 25
0 c117 0 341 39 470 83 483 161 861 539 1022 1022 78 232 83 307 83 1270 l0
825 -800 0 -800 0 0 -800z m1200 0 l0 -400 -400 0 -400 0 0 400 0 400 400 0
400 0 0 -400z"/>
</g>
</svg>
