<?xml version="1.0" standalone="no"?>
<!DOCTYPE svg PUBLIC "-//W3C//DTD SVG 20010904//EN"
 "http://www.w3.org/TR/2001/REC-SVG-20010904/DTD/svg10.dtd">
<svg version="1.0" xmlns="http://www.w3.org/2000/svg"
 width="612.000000pt" height="408.000000pt" viewBox="0 0 612.000000 408.000000"
 preserveAspectRatio="xMidYMid meet">

<g transform="translate(0.000000,408.000000) scale(0.100000,-0.100000)"
fill="#000000" stroke="none">
<path d="M3009 3056 c-3 -3 -47 -8 -99 -10 -87 -5 -167 -18 -215 -36 -11 -4
-38 -13 -60 -20 -69 -23 -222 -121 -293 -189 -78 -75 -144 -166 -189 -261 -34
-72 -72 -175 -79 -218 -3 -15 -9 -43 -13 -62 -11 -43 -11 -39 -11 -227 -1 -89
4 -170 11 -195 6 -24 13 -54 15 -67 1 -13 7 -35 12 -50 5 -14 15 -44 22 -66
15 -47 75 -173 110 -230 48 -80 166 -191 282 -266 45 -29 262 -111 271 -103 2
3 17 0 33 -7 96 -37 514 -22 594 21 11 6 20 8 20 5 0 -3 13 1 30 10 16 8 31
15 32 14 17 -11 220 85 323 153 116 76 106 34 103 434 l-3 349 -420 0 -420 0
0 -165 0 -165 253 -3 252 -2 0 -78 0 -77 -42 -25 c-79 -47 -219 -112 -283
-131 -22 -6 -51 -16 -64 -21 -30 -11 -300 -8 -307 3 -3 5 -14 9 -25 9 -10 0
-27 4 -37 9 -9 5 -30 15 -47 22 -16 8 -38 21 -47 29 -9 8 -41 35 -71 60 -48
39 -84 85 -122 155 -24 44 -54 167 -71 287 -17 122 -17 131 0 225 10 54 19
109 20 123 2 14 8 35 15 48 6 12 9 22 7 22 -10 0 34 91 66 138 66 98 157 164
283 204 49 15 235 21 299 9 89 -16 164 -55 230 -119 49 -48 97 -123 100 -156
2 -18 42 -23 85 -10 25 7 47 11 51 9 3 -2 24 1 46 6 21 6 54 12 72 14 41 4
141 35 147 45 9 15 -71 192 -114 250 -58 81 -144 153 -251 210 -35 19 -178 69
-183 64 -2 -3 -17 0 -33 6 -15 6 -62 13 -103 15 -42 2 -98 6 -126 10 -27 4
-52 4 -56 1z"/>
</g>
</svg>
