<?xml version="1.0" standalone="no"?>
<!DOCTYPE svg PUBLIC "-//W3C//DTD SVG 20010904//EN"
 "http://www.w3.org/TR/2001/REC-SVG-20010904/DTD/svg10.dtd">
<svg version="1.0" xmlns="http://www.w3.org/2000/svg"
 width="541.000000pt" height="461.000000pt" viewBox="0 0 541.000000 461.000000"
 preserveAspectRatio="xMidYMid meet">

<g transform="translate(0.000000,461.000000) scale(0.100000,-0.100000)"
fill="#d3d3d325" stroke="none">
<path d="M1592 2373 l3 -1678 223 -3 222 -2 0 675 0 675 303 0 c449 0 616 16
797 77 224 75 403 220 502 408 79 149 127 424 108 619 -28 280 -97 451 -245
601 -94 95 -163 143 -288 197 -114 49 -170 64 -327 88 -112 18 -185 20 -713
20 l-587 0 2 -1677z m1253 1283 c69 -21 185 -76 233 -113 42 -32 113 -127 145
-196 60 -126 74 -382 28 -527 -46 -147 -149 -268 -285 -335 -123 -61 -230 -74
-608 -75 l-318 0 0 636 0 636 373 -5 c315 -3 381 -7 432 -21z"/>
</g>
</svg>
