<?xml version="1.0" standalone="no"?>
<!DOCTYPE svg PUBLIC "-//W3C//DTD SVG 20010904//EN"
 "http://www.w3.org/TR/2001/REC-SVG-20010904/DTD/svg10.dtd">
<svg version="1.0" xmlns="http://www.w3.org/2000/svg"
 width="447.000000pt" height="559.000000pt" viewBox="0 0 447.000000 559.000000"
 preserveAspectRatio="xMidYMid meet">
<metadata>
Created by potrace 1.16, written by Peter Selinger 2001-2019
</metadata>
<g transform="translate(0.000000,559.000000) scale(0.100000,-0.100000)"
fill="#d3d3d332" stroke="none">
<path d="M2045 4874 c-172 -26 -298 -62 -439 -125 -290 -131 -508 -369 -595
-651 -67 -216 -68 -415 -4 -663 49 -190 149 -360 295 -500 81 -79 160 -145
172 -145 3 0 37 -20 75 -45 39 -25 105 -62 147 -81 99 -47 360 -132 544 -179
295 -74 474 -170 577 -308 65 -88 92 -152 104 -248 25 -204 -26 -365 -160
-499 -55 -55 -200 -131 -301 -157 -89 -23 -292 -23 -380 0 -277 74 -482 290
-507 535 l-6 52 -303 0 -304 0 0 -44 c0 -122 65 -355 131 -469 65 -114 98
-156 204 -260 119 -117 222 -188 365 -250 211 -91 381 -127 607 -127 325 0
635 105 858 291 259 218 384 482 384 814 1 138 -11 221 -50 360 -55 192 -149
347 -300 489 -213 201 -441 309 -915 436 -219 58 -290 85 -395 147 -105 62
-160 112 -215 194 -66 100 -85 168 -85 309 0 138 20 214 81 307 130 198 397
305 677 272 308 -38 568 -279 591 -546 l5 -63 303 0 304 0 0 54 c0 125 -57
341 -121 455 -183 326 -497 544 -902 627 -70 14 -382 27 -442 18z"/>
</g>
</svg>
